<?xml version="1.0" encoding="utf-8"?>
<svg xmlns="http://www.w3.org/2000/svg" fill="none" height="102" width="409">
  <path d="M361.36 42.66c-7.3 0-13.25 5.73-13.25 12.78 0 7.06 5.95 12.7 13.25 12.7s13.25-5.7 13.25-12.7c0-7-5.95-12.78-13.25-12.78Zm0 21.25a8.52 8.52 0 0 1-8.56-8.47 8.52 8.52 0 0 1 8.56-8.46c4.72 0 8.56 3.8 8.56 8.46a8.52 8.52 0 0 1-8.56 8.47Zm-22.24-26.93H335v3.63c0 1.82-.94 2.67-2.94 2.67h-1.93v4.1h4.34V59.1c0 3.6 1.15 6.2 3.41 7.72a9.22 9.22 0 0 0 5.02 1.41c1.23 0 2.3-.22 3.27-.68l.1-.04v-4.24l-.24.1c-.79.37-1.67.56-2.61.56-1.62 0-4.31-.66-4.31-5.02V47.38h7.14v-4.1h-7.14v-6.31.01Zm-16.97 18.3c0 3.8-1.17 8.3-6.72 8.3-4.2 0-6.16-2.38-6.16-7.49v-12.8h-4.65v13.13c0 7.78 3.43 11.71 10.22 11.71 4.48 0 6.77-2.52 7.47-3.67h.25l.8 3.15h3.56V43.29h-4.77v12Zm-153.74-8.86h-.26l-.79-3.15h-3.57V67.6h4.7V54.68c0-2.88.87-4.98 2.59-6.23 1.73-1.26 4.27-1.56 6.79-.8l.2.06v-4.69l-.11-.03c-3.71-.93-7.54.35-9.54 3.43h-.01Zm63.76-3.76a9.2 9.2 0 0 0-8.04 4.59 8.02 8.02 0 0 0-7.55-4.6 8.05 8.05 0 0 0-6.77 3.78h-.25l-.8-3.15h-3.56V67.6h4.78l-.07-14.1c0-2.92.95-6.38 5.48-6.38 3.68 0 5.45 2.08 5.45 6.37V67.6h4.74l-.03-14.1c0-4.06 2-6.38 5.48-6.38 3.48 0 5.4 2.15 5.4 6.37V67.6h4.72V53.65c.04-3.93-.9-6.87-2.78-8.74-1.5-1.5-3.58-2.26-6.19-2.26Zm-83.74 0c-5.48 0-9.42 2.93-10.3 7.65h4.56c.85-2.41 2.64-3.5 5.79-3.5s6.05 1.76 6.05 4.02c0 1.6-1.67 1.93-3.24 2.05-.61.04-3.2.26-4.27.33-6.8.46-9.7 2.68-9.7 7.44s3.32 7.48 8.89 7.48c4.06 0 6.68-1.23 8.31-3.68h.26l.8 3.15h3.56V53.26c0-4.84-1.85-10.6-10.7-10.6h-.01Zm6.23 14.95c0 3.84-3.1 6.42-7.39 6.42-2.42 0-5.31-.66-5.31-3.82 0-2.33 3.1-3.47 7.3-3.6 3.25-.23 4.45-.3 5.4-.96v1.96Zm35.18-14.95c-5.48 0-9.43 2.93-10.31 7.65h4.56c.85-2.41 2.64-3.5 5.78-3.5 3.15 0 6.06 1.76 6.06 4.02 0 1.6-1.67 1.93-3.24 2.05-.6.04-3.2.26-4.27.33-6.8.46-9.7 2.68-9.7 7.44s3.32 7.48 8.88 7.48c4.07 0 6.7-1.23 8.32-3.68h.25l.8 3.15h3.56V53.26c0-4.84-1.85-10.6-10.7-10.6Zm6.23 14.95c0 3.84-3.1 6.42-7.4 6.42-2.41 0-5.3-.66-5.3-3.82 0-2.33 3.1-3.47 7.3-3.6 3.25-.23 4.43-.3 5.4-.96v1.96Zm93.58-14.95c-5.48 0-9.43 2.93-10.31 7.65h4.57c.85-2.41 2.64-3.5 5.78-3.5 3.15 0 6.06 1.76 6.06 4.02 0 1.6-1.67 1.93-3.24 2.05-.62.04-3.2.26-4.27.33-6.8.46-9.7 2.68-9.7 7.44s3.32 7.48 8.88 7.48c4.07 0 6.7-1.23 8.3-3.68h.26l.8 3.15h3.57V53.26c0-4.84-1.86-10.6-10.7-10.6Zm6.23 14.95c0 3.84-3.1 6.42-7.39 6.42-2.42 0-5.32-.66-5.32-3.82 0-2.33 3.11-3.47 7.31-3.6 3.25-.23 4.44-.3 5.4-.96v1.96Zm-29.86-4.41c-3.26-.73-6.07-1.35-6.07-3.5 0-1.36 1.32-2.94 5.05-2.94 3.26 0 5.2 1.25 5.61 3.6h4.6v-.02c-.51-4.52-4.7-7.67-10.21-7.67-4.82 0-9.69 2.2-9.69 7.12 0 5.4 4.97 6.47 9.35 7.42 3.36.72 6.25 1.34 6.25 3.74 0 1.96-2.01 3.08-5.52 3.08-2.51 0-5.64-.66-6.39-3.77h-4.65c.45 4.85 4.65 7.86 10.95 7.86 4.73 0 10.25-1.95 10.25-7.43 0-5.49-5.06-6.5-9.53-7.49Zm-20.24 14.4h4.69V43.22h-4.7V67.6Zm2.18-33.45a3.04 3.04 0 0 0-3.12 3.06 3.05 3.05 0 0 0 3.12 3.06 3.1 3.1 0 0 0 3.18-3.06 3.09 3.09 0 0 0-3.18-3.06Z" fill="#FFFFFF"/>
  <path d="M52.07 53.84c-4.01 0-5.17-1.45-5.17-3.08 0-4.27 9.74-12.04 23.36-12.04 9.75 0 16.73 3.2 21.08 6.76l5.97-.59c-4.67-4.93-13.94-11.11-27.81-11.11-15.57 0-27.67 8.89-34.34 13.94-1.68 9.03.4 19.83 15.86 19.83 12.26 0 43.03-8.72 46.26-9.55 4.22 6.28 9.05 9.58 15.14 9.58 11.44 0 14.11-16.74 14.11-16.72-13.96-8.38-55.46 2.97-74.46 2.97v.01Zm60.27 9.05c-4.44 0-6.9-2.89-9.14-6.27 9.18-2.08 14.44-1.59 16.88-1.06-1 4.14-3.93 7.32-7.74 7.32v.01Z" fill="#6AD724"/>
</svg>