<?xml version="1.0" encoding="UTF-8"?>
<svg id="Calque_1" data-name="Calque 1" xmlns="http://www.w3.org/2000/svg" xmlns:xlink="http://www.w3.org/1999/xlink" viewBox="0 0 303.52 72.45">
  <defs>
    <style>
      .cls-1 {
        fill: none;
      }

      .cls-2 {
        stroke: #000;
        stroke-miterlimit: 10;
        stroke-width: .2px;
      }

      .cls-3 {
        fill: #2d4a8e;
      }

      .cls-4 {
        fill: #f9fbfb;
      }

      .cls-5 {
        fill: #75c093;
      }

      .cls-6 {
        fill: #1f4086;
      }

      .cls-7 {
        fill: #cad522;
      }

      .cls-8 {
        clip-path: url(#clippath-1);
      }

      .cls-9 {
        fill: #25478b;
      }

      .cls-10 {
        fill: #294a8e;
      }

      .cls-11 {
        fill: #27498c;
      }

      .cls-12 {
        fill: #27458a;
      }

      .cls-13 {
        fill: #35b9c5;
      }

      .cls-14 {
        clip-path: url(#clippath);
      }
    </style>
    <clipPath id="clippath">
      <rect class="cls-1" x="0" y="0" width="303.52" height="57.28"/>
    </clipPath>
    <clipPath id="clippath-1">
      <rect class="cls-1" x="0" y="0" width="303.52" height="57.28"/>
    </clipPath>
  </defs>
  <g>
    <path d="M203.77,66.41c-.38.47-.81.88-1.3,1.22-.49.34-1.03.59-1.62.76-.59.17-1.21.25-1.87.25-.84,0-1.62-.14-2.35-.42-.73-.28-1.37-.69-1.92-1.22-.55-.53-.98-1.17-1.29-1.93-.31-.76-.47-1.61-.47-2.56s.16-1.78.47-2.54c.31-.76.74-1.4,1.29-1.93s1.19-.94,1.92-1.22c.73-.28,1.52-.42,2.35-.42s1.65.14,2.38.42c.73.28,1.37.69,1.91,1.22.54.53.97,1.18,1.28,1.93.31.76.47,1.6.47,2.54v.24c0,.08,0,.16-.02.24,0,.1-.03.18-.1.24s-.14.1-.24.1h-8.96c0,.45.08.86.25,1.23.17.37.4.68.69.94s.64.45,1.04.59c.4.14.84.21,1.3.21.31,0,.58-.02.82-.06s.46-.11.66-.22.38-.23.54-.36c.16-.14.3-.3.41-.5.23-.21.45-.37.68-.49.23-.12.44-.18.65-.18h1.67c.11,0,.19.03.23.08.04.06.04.13-.01.23-.19.6-.48,1.13-.86,1.61ZM197.7,58.94c-.39.14-.72.33-1,.56-.28.23-.5.49-.66.81-.16.31-.24.65-.24,1h6.4c0-.35-.08-.69-.24-1-.16-.31-.38-.58-.66-.81-.28-.23-.62-.41-1.01-.56-.39-.14-.83-.22-1.29-.22s-.89.07-1.28.22Z"/>
    <path d="M208.47,56.69c.1,0,.19.03.27.08.08.06.14.13.17.23l3.24,8.28,3.07-7.8c.1-.24.25-.43.46-.58.21-.14.44-.22.7-.22h1.67c.1,0,.16.03.21.08.04.06.04.13.01.23l-4.52,11.04c-.05.1-.11.17-.19.23-.08.06-.17.08-.27.08h-1.3c-.39,0-.74-.1-1.05-.31-.31-.21-.54-.5-.69-.87l-4.18-10.17c-.03-.1-.03-.17.01-.23s.11-.08.21-.08h2.2Z"/>
    <path d="M230.12,66.41c-.38.47-.81.88-1.3,1.22-.49.34-1.03.59-1.62.76-.59.17-1.21.25-1.87.25-.84,0-1.62-.14-2.35-.42-.73-.28-1.37-.69-1.92-1.22-.55-.53-.98-1.17-1.29-1.93-.31-.76-.47-1.61-.47-2.56s.16-1.78.47-2.54c.31-.76.74-1.4,1.29-1.93s1.19-.94,1.92-1.22c.73-.28,1.52-.42,2.35-.42s1.65.14,2.38.42c.73.28,1.37.69,1.91,1.22.54.53.97,1.18,1.28,1.93.31.76.47,1.6.47,2.54v.24c0,.08,0,.16-.02.24,0,.1-.03.18-.1.24s-.14.1-.24.1h-8.96c0,.45.08.86.25,1.23.17.37.4.68.69.94s.64.45,1.04.59c.4.14.84.21,1.3.21.31,0,.58-.02.82-.06s.46-.11.66-.22.38-.23.54-.36c.16-.14.3-.3.41-.5.23-.21.45-.37.68-.49.23-.12.44-.18.65-.18h1.67c.11,0,.19.03.23.08.04.06.04.13-.01.23-.19.6-.48,1.13-.86,1.61ZM224.05,58.94c-.39.14-.72.33-1,.56-.28.23-.5.49-.66.81-.16.31-.24.65-.24,1h6.4c0-.35-.08-.69-.24-1-.16-.31-.38-.58-.66-.81-.28-.23-.62-.41-1.01-.56-.39-.14-.83-.22-1.29-.22s-.89.07-1.28.22Z"/>
    <path d="M233.92,62.1c0-.95.15-1.77.45-2.45.3-.68.7-1.25,1.21-1.69.51-.44,1.11-.76,1.81-.97.7-.2,1.44-.3,2.21-.3h1.23c.1,0,.18.03.24.1s.1.14.1.24v1.13c0,.26-.08.47-.24.63-.16.16-.37.24-.63.24h-.7c-.4,0-.79.06-1.17.18-.38.12-.7.31-.98.56-.27.25-.49.57-.64.95-.15.39-.23.85-.23,1.38v5.92c0,.1-.03.18-.1.24s-.14.1-.24.1h-1.98c-.1,0-.18-.03-.24-.1-.06-.06-.1-.14-.1-.24v-5.92Z"/>
    <path d="M245.54,53.36c.29.29.43.64.43,1.06s-.14.77-.43,1.05c-.29.28-.64.42-1.04.42s-.77-.14-1.05-.42c-.28-.28-.42-.63-.42-1.05s.14-.77.42-1.06c.28-.29.63-.43,1.05-.43s.75.14,1.04.43ZM244.53,56.69c.39,0,.7.12.93.35s.35.54.35.93v10.05c0,.1-.03.18-.1.24-.06.06-.14.1-.24.1h-1.98c-.1,0-.18-.03-.24-.1-.06-.06-.1-.14-.1-.24v-10.99c0-.1.03-.18.1-.24s.14-.1.24-.1h1.04Z"/>
    <path d="M259.34,66.41c-.38.47-.81.88-1.3,1.22s-1.03.59-1.62.76c-.59.17-1.21.25-1.87.25-.84,0-1.62-.14-2.35-.42-.73-.28-1.37-.69-1.92-1.22-.55-.53-.98-1.17-1.29-1.93-.31-.76-.47-1.61-.47-2.56s.16-1.78.47-2.54c.31-.76.74-1.4,1.29-1.93s1.19-.94,1.92-1.22c.73-.28,1.52-.42,2.35-.42s1.65.14,2.38.42c.73.28,1.37.69,1.91,1.22s.97,1.18,1.28,1.93c.31.76.47,1.6.47,2.54v.24c0,.08,0,.16-.02.24,0,.1-.03.18-.1.24s-.14.1-.24.1h-8.96c0,.45.08.86.25,1.23.17.37.4.68.69.94s.64.45,1.04.59c.4.14.84.21,1.3.21.31,0,.58-.02.82-.06s.46-.11.66-.22c.2-.1.38-.23.54-.36.16-.14.3-.3.41-.5.23-.21.45-.37.68-.49.23-.12.44-.18.65-.18h1.67c.11,0,.19.03.23.08s.04.13-.01.23c-.19.6-.48,1.13-.86,1.61ZM253.27,58.94c-.39.14-.72.33-1,.56-.28.23-.5.49-.66.81-.16.31-.24.65-.24,1h6.4c0-.35-.08-.69-.24-1-.16-.31-.38-.58-.66-.81-.28-.23-.62-.41-1.01-.56s-.83-.22-1.29-.22-.89.07-1.28.22Z"/>
    <path d="M263.15,61.81c0-.95.15-1.77.46-2.45.31-.68.71-1.25,1.22-1.69.51-.44,1.11-.76,1.81-.97.7-.2,1.44-.3,2.23-.3s1.53.1,2.23.3,1.31.52,1.82.97c.52.44.93,1.01,1.23,1.69.31.68.46,1.5.46,2.45v6.21c0,.1-.03.18-.1.24s-.14.1-.24.1h-1.06c-.37,0-.67-.12-.91-.35-.23-.23-.35-.54-.35-.93v-5.26c0-.53-.08-.99-.25-1.39-.17-.39-.39-.71-.66-.95-.27-.24-.6-.42-.97-.54-.37-.12-.77-.18-1.21-.18s-.84.06-1.21.18c-.37.12-.69.3-.97.54-.27.24-.49.56-.65.95s-.24.86-.24,1.39v6.21c0,.1-.03.18-.1.24-.06.06-.14.1-.24.1h-1.98c-.1,0-.18-.03-.24-.1-.06-.06-.1-.14-.1-.24v-6.21Z"/>
    <path d="M288.48,66.17c-.37.52-.82.97-1.34,1.34-.52.37-1.11.65-1.75.85s-1.32.29-2.03.29c-.87,0-1.68-.14-2.44-.42s-1.41-.68-1.97-1.21c-.56-.52-1-1.17-1.33-1.93-.33-.76-.5-1.62-.5-2.57s.16-1.78.5-2.55c.33-.76.77-1.41,1.33-1.93.56-.52,1.21-.93,1.97-1.21.76-.28,1.57-.42,2.44-.42.68,0,1.32.09,1.93.27s1.17.43,1.68.76c.51.33.95.73,1.34,1.21.39.48.68,1.02.89,1.63.03.1.02.17-.02.23-.05.06-.12.08-.22.08h-1.84c-.18,0-.36-.04-.54-.13-.19-.09-.36-.21-.52-.37-.14-.21-.32-.4-.52-.57-.2-.17-.41-.31-.64-.41-.23-.1-.47-.19-.74-.25s-.54-.1-.81-.1c-.5,0-.97.09-1.4.27s-.81.43-1.13.75-.58.72-.76,1.18c-.19.47-.28.99-.28,1.57s.09,1.13.28,1.59.44.87.76,1.2c.32.33.7.58,1.13.75s.9.25,1.4.25c.31,0,.61-.04.92-.11s.59-.18.85-.33c.26-.14.49-.32.69-.53.2-.21.38-.45.54-.72.13-.18.27-.31.43-.41.16-.1.33-.14.51-.14h1.76c.11,0,.19.03.24.1.05.06.06.14.02.22-.19.68-.47,1.28-.84,1.8Z"/>
    <path d="M302.28,66.41c-.38.47-.81.88-1.3,1.22s-1.03.59-1.62.76c-.59.17-1.21.25-1.87.25-.84,0-1.62-.14-2.35-.42-.73-.28-1.37-.69-1.92-1.22-.55-.53-.98-1.17-1.29-1.93-.31-.76-.47-1.61-.47-2.56s.16-1.78.47-2.54c.31-.76.74-1.4,1.29-1.93s1.19-.94,1.92-1.22c.73-.28,1.52-.42,2.35-.42s1.65.14,2.38.42c.73.28,1.37.69,1.91,1.22s.97,1.18,1.28,1.93c.31.76.47,1.6.47,2.54v.24c0,.08,0,.16-.02.24,0,.1-.03.18-.1.24s-.14.1-.24.1h-8.96c0,.45.08.86.25,1.23.17.37.4.68.69.94s.64.45,1.04.59c.4.14.84.21,1.3.21.31,0,.58-.02.82-.06s.46-.11.66-.22c.2-.1.38-.23.54-.36.16-.14.3-.3.41-.5.23-.21.45-.37.68-.49.23-.12.44-.18.65-.18h1.67c.11,0,.19.03.23.08s.04.13-.01.23c-.19.6-.48,1.13-.86,1.61ZM296.21,58.94c-.39.14-.72.33-1,.56-.28.23-.5.49-.66.81-.16.31-.24.65-.24,1h6.4c0-.35-.08-.69-.24-1-.16-.31-.38-.58-.66-.81-.28-.23-.62-.41-1.01-.56s-.83-.22-1.29-.22-.89.07-1.28.22Z"/>
  </g>
  <g>
    <path class="cls-2" d="M170.59,55.76h2.01v5.13c.62-.52,1.43-.79,2.33-.79,2.16,0,3.93,1.64,3.93,4.22s-1.86,4.5-4.44,4.5c-.98,0-1.81-.24-2.53-.64l-1.3.4v-12.82ZM176.83,64.43c0-1.49-.89-2.58-2.41-2.58-.73,0-1.37.27-1.82.64v4.22c.44.24,1.08.42,1.7.42,1.55,0,2.53-1.15,2.53-2.7Z"/>
    <path class="cls-2" d="M188.1,60.28l-5.55,12.08h-2.09l2.16-4.54-3.49-7.54h2.11l2.41,5.31,2.41-5.31h2.04Z"/>
  </g>
  <g>
    <g class="cls-14">
      <path class="cls-4" d="M24.6,46.11h-11.53c.57,2.64,5.38,6.01,7.73,7.25,10.03,5.31,17.06.47,23.77-7.25h-12.29v-3.07c.54-.57,7.88,1.17,6.91-1.15-7.56-9.77-13.95-9.76-21.5,0-.97,2.31,6.37.58,6.91,1.15v3.07ZM46.11,44.57c11.8-9.83,11.8-21.68,0-31.51v11.14c0,.76-2.39,1.98-3.48.4l-.75-6.93c-9.7,7.62-9.9,14.75,0,22.28.87-2.71-.97-10.48,4.22-6.53v11.14ZM11.54,13.07c-2.68.85-6.89,6.76-7.99,9.3-1.84,4.24-1.84,8.66,0,12.91,1.1,2.54,5.31,8.45,7.99,9.3v-12.29h3.07s.38,7.68.38,7.68c10.44-8.31,10.44-13.97,0-22.28l-1.11,7.34-2.35.34v-12.29ZM44.58,11.53C35.51.2,24.82-1.07,14.24,9.24c-.76.74-1.45,1-1.17,2.29h11.53v3.07c-.54.57-7.88-1.17-6.91,1.14,7.58,9.45,14.08,9.8,21.5,0,.97-2.31-6.37-.57-6.91-1.14v-3.07h12.3ZM28.15,0c11.61,0,28.84,16.9,29.29,28.26.44,11.32-17.97,29.02-29.05,29.02C16.24,57.28,0,39.97,0,28.82,0,18.64,17.24,0,28.15,0"/>
      <path class="cls-10" d="M268.95,39.19V10.76h4.61v31.11c0,3.35-.76,4.24-2.68,4.24-2.89,0-4.62-2.15-5.72-3.47-5.09-6.02-18.49-24.2-18.49-24.2v27.66h-4.61s0-31.39,0-31.39c0-3.37,2.17-3.96,3.52-3.96,2.4,0,4.03,2.81,4.57,3.55,4.43,6.07,15.35,20.34,18.8,24.88"/>
      <path class="cls-12" d="M182.33,10.76c5.59,0,11.95,4.25,11.95,11.57,0,4.64-2.63,9.07-7.28,10.48-3.1.93-5.4,1.11-8.67,1.05-2.64-.04-3.73-2.08-4.66-3.89,6.37.18,16.37.46,16.18-8.06-.09-4.02-4.37-6.54-8.11-6.54h-11.14v30.74h-4.61V10.76c4.94.03,11.69,0,16.35,0"/>
      <path class="cls-10" d="M130.64,42.27c-.03,1.49.02,2.08.06,3.84-3.24.05-10.87,0-16.36,0-3.6,0-7.49-2.72-7.49-8.84s.01-16.05.03-18.37c.06-6.04,5.11-8.13,10.8-8.14,4.72,0,9.53,0,12.87,0l.08,4.61h-14.98c-1.6,0-4.28,1.52-4.26,4.18.04,8.89.04,9.9.09,16.56.04,4.99,2.61,6.15,5.65,6.15h13.51Z"/>
      <path class="cls-9" d="M73.78,10.76v15.37h13.23c2.18,0,4.47,2.3,4.47,4.61-3.77-.02-17.7,0-17.7,0v15.37h-4.61V10.76h4.61Z"/>
      <path class="cls-9" d="M205.17,10.76v25.74c-.06,3.58,2.07,5.76,4.77,5.76h13.68l-.04,3.8c-5.62.04-10.86.03-15.97.03-3.53,0-7.04-2.3-7.04-7.45V10.76h4.61Z"/>
      <path class="cls-9" d="M142.15,10.76v25.74c-.06,3.58,2.07,5.76,4.77,5.76h13.68l-.04,3.8c-5.62.04-10.86.03-15.97.03-3.53,0-7.04-2.3-7.04-7.45V10.76h4.61Z"/>
    </g>
    <rect class="cls-3" x="94.95" y="10.76" width="4.95" height="35.35"/>
    <g class="cls-8">
      <path class="cls-11" d="M229.81,10.76c1.13,0,4.56,1.55,4.56,4.75v30.58c-1.46.02-3.54.02-4.56,0,0,0-.06-27.1,0-35.33"/>
      <path class="cls-6" d="M129.87,26.9v3.82s-11.47-.01-14.6,0c.08-1.91,1.99-3.82,4.32-3.82h10.28Z"/>
      <path class="cls-6" d="M303.52,26.9v3.82s-11.47-.01-14.6,0c.08-1.91,1.99-3.82,4.32-3.82h10.28Z"/>
      <path class="cls-10" d="M303.46,42.27c-.03,1.49.02,2.08.06,3.84-3.24.05-10.87,0-16.36,0-3.6,0-7.49-2.72-7.49-8.84s.01-16.05.03-18.37c.06-6.04,5.11-8.13,10.8-8.14,4.72,0,9.53,0,12.87,0l.08,4.61h-14.98c-1.6,0-4.1,1.43-4.1,4.09,0,2.08.04,9.9.1,16.56.04,4.99,2.44,6.24,5.48,6.24h13.51Z"/>
      <path class="cls-7" d="M24.6,46.11v-3.07c-.54-.57-7.88,1.17-6.91-1.15,7.56-9.76,13.94-9.77,21.5,0,.97,2.31-6.37.58-6.91,1.15v3.07h12.3c-6.71,7.72-13.74,12.56-23.77,7.25-2.35-1.24-7.17-4.61-7.73-7.25h11.53Z"/>
      <path class="cls-13" d="M44.58,11.53h-12.29v3.07c.54.57,7.88-1.17,6.91,1.15-7.43,9.8-13.92,9.45-21.5,0-.97-2.31,6.37-.57,6.91-1.15v-3.07h-11.53c-.28-1.29.41-1.55,1.17-2.29C24.82-1.07,35.51.2,44.58,11.53"/>
      <path class="cls-12" d="M11.54,13.07v12.29l2.35-.34,1.11-7.34c10.44,8.31,10.44,13.97,0,22.28l-.38-7.68h-3.07v12.3c-2.68-.84-6.89-6.76-7.99-9.3-1.84-4.24-1.84-8.66,0-12.91,1.1-2.54,5.31-8.45,7.99-9.3"/>
      <path class="cls-5" d="M46.11,44.57v-11.14c-5.19-3.95-3.35,3.81-4.22,6.53-9.89-7.53-9.7-14.66,0-22.28l.75,6.93c1.08,1.58,3.48.36,3.48-.4v-11.14c11.8,9.83,11.8,21.68,0,31.5"/>
    </g>
  </g>
</svg>